<svg xmlns="http://www.w3.org/2000/svg" xmlns:xlink="http://www.w3.org/1999/xlink" version="1.1" x="0px" y="0px" viewBox="0 0 512 640" enable-background="new 0 0 512 512" xml:space="preserve"><g><path d="M256,238.9c15.8,0,28.6,12.8,28.6,28.6c0,7.8,6.3,14.1,14.1,14.1c7.8,0,14.1-6.3,14.1-14.1c0-26.5-18.2-48.7-42.7-55v-13.7   c0-7.8-6.3-14.1-14.1-14.1c-7.8,0-14.1,6.3-14.1,14.1v13.7c-24.5,6.3-42.7,28.5-42.7,55c0,31.3,25.5,56.9,56.9,56.9   c-0.5,0.1,0,0,0.1,0c14.7,1.2,28.5,13.3,28.5,28.4c0,15.8-12.8,28.6-28.6,28.6c-15.8,0-28.6-12.8-28.6-28.6   c0-7.8-6.3-14.1-14.1-14.1s-14.1,6.3-14.1,14.1c0,26.5,18.2,48.7,42.7,55v13.6c0,7.8,6.3,14.1,14.1,14.1c7.8,0,14.1-6.3,14.1-14.1   v-13.6c24.5-6.3,42.7-28.5,42.7-55c0-31.4-27.7-56.7-59-56.7c0.5-0.1,0,0-0.1,0c-14.7-1.2-26.3-13.5-26.3-28.5   C227.4,251.8,240.2,238.9,256,238.9z"/><path d="M409.8,182.9l15.9-15.9c5.3-5.3,8.3-12.4,8.3-20c0-7.5-2.9-14.6-8.3-20L406,107.2c-10.7-10.7-29.3-10.7-39.9,0l-23.2,23.2   c-12.7-6.2-26.1-11.2-40.1-14.6V83.6h4.4c15.6,0,28.2-12.7,28.2-28.2V30.2c0-15.6-12.7-28.2-28.2-28.2H204.9   c-15.6,0-28.2,12.7-28.2,28.2v25.1c0,15.6,12.7,28.2,28.2,28.2h4.4v32.3C121.5,136.9,56.1,216,56.1,310.1   C56.1,420.3,145.8,510,256,510c110.2,0,199.9-89.7,199.9-199.9C455.9,261.8,438.5,217.5,409.8,182.9z M368.4,144.8l17.7-17.7   l19.8,19.8l-15.4,15.4c-0.1,0-0.1,0-0.2,0c-6.9-6.3-14.3-11.9-22-17.2C368.3,145,368.3,144.9,368.4,144.8z M204.9,55.3V30.2h102.3   l0,25.1H204.9z M274.5,83.6v27.6c0,0,0,0,0,0c-6.1-0.6-12.3-0.9-18.5-0.9s-12.4,0.3-18.5,0.9c0,0,0,0,0,0V83.6H274.5z M256,481.8   c-79.1,0-145.8-53.8-165.6-126.7h31.1c7.8,0,14.1-6.3,14.1-14.1c0-7.8-6.3-14.1-14.1-14.1H85.2c-0.5-5.5-0.8-11.1-0.8-16.7   c0-5.6,0.3-11.2,0.8-16.7h71.3c7.8,0,14.1-6.3,14.1-14.1c0-7.8-6.3-14.1-14.1-14.1H90.4c19.8-72.9,86.5-126.7,165.6-126.7   c94.6,0,171.6,77,171.6,171.6C427.6,404.8,350.6,481.8,256,481.8z"/></g><text x="0" y="527" fill="#000000" font-size="5px" font-weight="bold" font-family="'Helvetica Neue', Helvetica, Arial-Unicode, Arial, Sans-serif">Created by Icon Fair</text><text x="0" y="532" fill="#000000" font-size="5px" font-weight="bold" font-family="'Helvetica Neue', Helvetica, Arial-Unicode, Arial, Sans-serif">from the Noun Project</text></svg>