<svg xmlns="http://www.w3.org/2000/svg" xmlns:xlink="http://www.w3.org/1999/xlink" version="1.1" x="0px" y="0px" viewBox="0 0 512 640" enable-background="new 0 0 512 512" xml:space="preserve"><g><path d="M256,198.1c12.1,0,22,9.9,22,22c0,7.8,6.3,14.1,14.1,14.1s14.1-6.3,14.1-14.1c0-22.8-15.3-42.1-36.2-48.2V162   c0-7.8-6.3-14.1-14.1-14.1c-7.8,0-14.1,6.3-14.1,14.1v9.9c-20.9,6.1-36.2,25.4-36.2,48.2c0,27.7,22.5,50.3,50.3,50.3   c-0.4,0.1,0,0,0.1,0c11.2,1,21.9,10.3,21.9,21.8c0,12.2-9.9,22-22,22c-12.1,0-22-9.9-22-22c0-7.8-6.3-14.1-14.1-14.1   c-7.8,0-14.1,6.3-14.1,14.1c0,22.8,15.3,42.1,36.2,48.2v9.8c0,7.8,6.3,14.1,14.1,14.1c7.8,0,14.1-6.3,14.1-14.1v-9.8   c20.9-6.1,36.2-25.4,36.2-48.2c0-27.7-24.4-50.1-52.2-50.1c0.4-0.1,0,0-0.1,0c-11.2-1-20-10.5-20-21.9   C234,208,243.8,198.1,256,198.1z"/><path d="M494.4,318.1c-7.4-2.4-15.4,1.6-17.8,9c-39.1,118.3-167.1,182.7-285.4,143.6C72.9,431.5,8.5,303.5,47.6,185.2   C86.7,67,214.7,2.6,333,41.7c38,12.6,70.9,34.5,97,63.7L388,98.5c-7.8-1.3-15,3.9-16.2,11.6c-1.3,7.7,3.9,15,11.6,16.2l77.5,12.8   c8.1,1.3,14.9-4,16.2-11.6L489.9,50c1.3-7.7-3.9-15-11.6-16.2c-7.8-1.3-15,3.9-16.2,11.6l-7.5,45.2   c-29.9-34.7-68.9-61.2-112.8-75.7C208.8-29.1,64.8,43.3,20.8,176.4c-44,133,28.1,278.3,161.5,321.1c137.4,44,277-31.9,321.1-161.5   C505.9,328.5,501.8,320.5,494.4,318.1z"/><path d="M256,101.6c-85.2,0-154.5,69.3-154.5,154.5S170.8,410.7,256,410.7c85.2,0,154.5-69.3,154.5-154.5S341.2,101.6,256,101.6z    M256,382.4c-55.8,0-103.2-36.5-119.9-86.8h20.2c7.8,0,14.1-6.3,14.1-14.1c0-7.8-6.3-14.1-14.1-14.1h-26.1   c-0.3-3.7-0.6-7.4-0.6-11.2c0-3.8,0.2-7.5,0.6-11.2h37.1c7.8,0,14.1-6.3,14.1-14.1s-6.3-14.1-14.1-14.1h-31.2   c16.6-50.3,64-86.8,119.9-86.8c69.6,0,126.3,56.6,126.3,126.3S325.6,382.4,256,382.4z"/></g><text x="0" y="527" fill="#000000" font-size="5px" font-weight="bold" font-family="'Helvetica Neue', Helvetica, Arial-Unicode, Arial, Sans-serif">Created by Icon Fair</text><text x="0" y="532" fill="#000000" font-size="5px" font-weight="bold" font-family="'Helvetica Neue', Helvetica, Arial-Unicode, Arial, Sans-serif">from the Noun Project</text></svg>