<svg xmlns="http://www.w3.org/2000/svg" xmlns:xlink="http://www.w3.org/1999/xlink" version="1.1" x="0px" y="0px" viewBox="0 0 100 125" style="enable-background:new 0 0 100 100;" xml:space="preserve"><g><path d="M92.9,38.8h-4.1c-0.8-2.9-2-5.6-3.4-8.3l2.9-2.9c1.9-1.9,2.1-5,0.5-7.2c-2.6-3.4-5.7-6.5-9.2-9.2c-2.2-1.6-5.2-1.4-7.2,0.5   l-2.9,2.9c-2.6-1.5-5.4-2.6-8.3-3.4V7.1c0-2.7-2-5-4.7-5.4c-4.3-0.6-8.7-0.6-13,0c-2.7,0.4-4.7,2.7-4.7,5.4v4.1   c-2.9,0.8-5.6,2-8.3,3.4l-2.9-2.9c-1.9-1.9-5-2.1-7.2-0.5c-3.4,2.6-6.5,5.7-9.2,9.2c-1.6,2.2-1.4,5.2,0.5,7.2l2.9,2.9   c-1.5,2.6-2.6,5.4-3.4,8.3H7.1c-2.7,0-5,2-5.4,4.7c-0.3,2.2-0.4,4.3-0.4,6.5c0,2.1,0.1,4.3,0.4,6.5c0.4,2.7,2.7,4.7,5.4,4.7h4.1   c0.8,2.9,2,5.6,3.4,8.3l-2.9,2.9c-1.9,1.9-2.1,5-0.5,7.2c2.6,3.4,5.7,6.5,9.2,9.2c2.2,1.6,5.2,1.4,7.2-0.5l2.9-2.9   c2.6,1.5,5.4,2.6,8.3,3.4v4.1c0,2.7,2,5,4.7,5.4c2.2,0.3,4.3,0.4,6.5,0.4s4.3-0.1,6.5-0.4c2.7-0.4,4.7-2.7,4.7-5.4v-4.1   c2.9-0.8,5.6-2,8.3-3.4l2.9,2.9c1.9,1.9,5,2.1,7.2,0.5c3.4-2.6,6.5-5.7,9.2-9.2c1.6-2.2,1.4-5.2-0.5-7.2l-2.9-2.9   c1.5-2.6,2.6-5.4,3.4-8.3h4.1c2.7,0,5-2,5.4-4.7c0.3-2.2,0.4-4.3,0.4-6.5c0-2.1-0.1-4.3-0.4-6.5C97.9,40.8,95.6,38.8,92.9,38.8z    M90.8,53.4h-3.8c-2.5,0-4.7,1.7-5.3,4.2c-0.8,3.3-2.1,6.4-3.9,9.4c-1.3,2.2-1,4.9,0.8,6.7l2.7,2.7c-1.5,1.7-3.1,3.3-4.8,4.8   l-2.7-2.7c-1.8-1.8-4.6-2.1-6.7-0.8c-2.9,1.8-6.1,3.1-9.4,3.9c-2.5,0.6-4.2,2.8-4.2,5.3v3.8c-2.3,0.2-4.5,0.2-6.8,0v-3.8   c0-2.5-1.7-4.7-4.2-5.3c-3.3-0.8-6.4-2.1-9.4-3.9c-2.2-1.3-4.9-1-6.7,0.8l-2.7,2.7c-1.7-1.5-3.3-3.1-4.8-4.8l2.7-2.7   c1.8-1.8,2.1-4.6,0.8-6.7c-1.8-2.9-3.1-6.1-3.9-9.4c-0.6-2.5-2.8-4.2-5.3-4.2H9.2c-0.1-1.1-0.1-2.3-0.1-3.4c0-1.1,0-2.3,0.1-3.4   h3.8c2.5,0,4.7-1.7,5.3-4.2c0.8-3.3,2.1-6.4,3.9-9.4c1.3-2.2,1-4.9-0.8-6.7l-2.7-2.7c1.5-1.7,3.1-3.3,4.8-4.8l2.7,2.7   c1.8,1.8,4.6,2.1,6.7,0.8c2.9-1.8,6.1-3.1,9.4-3.9c2.5-0.6,4.2-2.8,4.2-5.3V9.2c2.3-0.2,4.5-0.2,6.8,0v3.8c0,2.5,1.7,4.7,4.2,5.3   c3.3,0.8,6.5,2.1,9.4,3.9c2.2,1.3,4.9,1,6.7-0.8l2.7-2.7c1.7,1.5,3.3,3.1,4.8,4.8l-2.7,2.7c-1.8,1.8-2.1,4.6-0.8,6.7   c1.8,2.9,3.1,6.1,3.9,9.4c0.6,2.5,2.8,4.2,5.3,4.2h3.8c0.1,1.1,0.1,2.3,0.1,3.4C90.9,51.1,90.9,52.3,90.8,53.4z"/><path d="M50,30.3c-10.9,0-19.7,8.9-19.7,19.7c0,10.9,8.9,19.7,19.7,19.7S69.7,60.9,69.7,50C69.7,39.1,60.9,30.3,50,30.3z M38.1,50   c0-6.6,5.4-11.9,11.9-11.9S61.9,43.4,61.9,50S56.6,61.9,50,61.9S38.1,56.6,38.1,50z"/></g><text x="0" y="115" fill="#000000" font-size="5px" font-weight="bold" font-family="'Helvetica Neue', Helvetica, Arial-Unicode, Arial, Sans-serif">Created by Michal Beno</text><text x="0" y="120" fill="#000000" font-size="5px" font-weight="bold" font-family="'Helvetica Neue', Helvetica, Arial-Unicode, Arial, Sans-serif">from the Noun Project</text></svg>